<svg width="161" height="48" viewBox="0 0 161 48" fill="none" xmlns="http://www.w3.org/2000/svg">
<rect width="161" height="48" fill="#FF6B00"/>
<path d="M21.6927 21.6328H24.349C24.0109 19.1879 21.8557 17.4673 19.0606 17.4673C15.7946 17.4673 13.2772 19.8217 13.2772 23.8303C13.2772 27.7422 15.6316 30.169 19.1149 30.169C22.236 30.169 24.4637 28.195 24.4637 24.9411V23.3835H19.29V25.3516H21.9463C21.91 26.8849 20.8657 27.8569 19.127 27.8569C17.165 27.8569 15.9274 26.3899 15.9274 23.8061C15.9274 21.2344 17.2133 19.7795 19.1029 19.7795C20.4491 19.7795 21.3607 20.4737 21.6927 21.6328ZM31.1147 30.1811C33.4088 30.1811 34.9542 29.0643 35.3164 27.3438L32.9379 27.1868C32.6783 27.8931 32.0142 28.2614 31.157 28.2614C29.8711 28.2614 29.0561 27.4102 29.0561 26.0277V26.0217H35.3708V25.3153C35.3708 22.1641 33.4631 20.6065 31.0121 20.6065C28.2834 20.6065 26.5146 22.5444 26.5146 25.4059C26.5146 28.3459 28.2593 30.1811 31.1147 30.1811ZM29.0561 24.4279C29.1105 23.3714 29.9134 22.5263 31.0544 22.5263C32.1712 22.5263 32.9439 23.3232 32.95 24.4279H29.0561ZM42.4912 20.7273H40.7465V18.5057H38.1748V20.7273H36.907V22.6591H38.1748V27.4886C38.1627 29.3058 39.4003 30.2053 41.2657 30.1268C41.9298 30.1026 42.4007 29.9698 42.6602 29.8853L42.2558 27.9716C42.129 27.9957 41.8573 28.0561 41.6159 28.0561C41.1027 28.0561 40.7465 27.8629 40.7465 27.1506V22.6591H42.4912V20.7273ZM49.1693 17.6364V30H51.7048V21.9226H51.8075L55.007 29.9396H56.7336L59.9332 21.9528H60.0358V30H62.5713V17.6364H59.3476L55.9428 25.9432H55.7979L52.393 17.6364H49.1693ZM66.7744 33.4592C68.6881 33.4592 69.7084 32.4872 70.2275 31.0021L73.8316 20.7393L71.1089 20.7273L69.1711 27.5369H69.0745L67.1547 20.7273H64.4502L67.7765 30.2656L67.6256 30.658C67.2634 31.4972 66.6416 31.5575 65.7361 31.2738L65.1565 33.1996C65.5248 33.3505 66.1224 33.4592 66.7744 33.4592ZM80.1505 30H82.7645V25.6172H84.6722L87.0145 30H89.9001L87.2741 25.1946C88.6807 24.5909 89.4594 23.3654 89.4594 21.6751C89.4594 19.218 87.8355 17.6364 85.0283 17.6364H80.1505V30ZM82.7645 23.5163V19.7734H84.5273C86.0365 19.7734 86.767 20.4435 86.767 21.6751C86.767 22.9006 86.0365 23.5163 84.5393 23.5163H82.7645ZM95.8449 30.1811C98.1389 30.1811 99.6844 29.0643 100.047 27.3438L97.668 27.1868C97.4085 27.8931 96.7444 28.2614 95.8871 28.2614C94.6013 28.2614 93.7863 27.4102 93.7863 26.0277V26.0217H100.101V25.3153C100.101 22.1641 98.1933 20.6065 95.7423 20.6065C93.0136 20.6065 91.2447 22.5444 91.2447 25.4059C91.2447 28.3459 92.9894 30.1811 95.8449 30.1811ZM93.7863 24.4279C93.8406 23.3714 94.6435 22.5263 95.7845 22.5263C96.9014 22.5263 97.6741 23.3232 97.6801 24.4279H93.7863ZM110.004 23.3714C109.775 21.663 108.399 20.6065 106.056 20.6065C103.684 20.6065 102.12 21.7053 102.126 23.4922C102.12 24.8807 102.996 25.7802 104.807 26.1424L106.412 26.4624C107.221 26.6254 107.59 26.9212 107.602 27.386C107.59 27.9354 106.992 28.3278 106.092 28.3278C105.175 28.3278 104.565 27.9354 104.408 27.1808L101.879 27.3136C102.12 29.0884 103.629 30.1811 106.086 30.1811C108.489 30.1811 110.21 28.9556 110.216 27.1264C110.21 25.7862 109.334 24.9833 107.535 24.6151L105.857 24.277C104.994 24.0898 104.674 23.794 104.68 23.3473C104.674 22.7919 105.302 22.4297 106.098 22.4297C106.992 22.4297 107.523 22.9187 107.65 23.5163L110.004 23.3714ZM118.291 26.0518C118.298 27.2955 117.446 27.9474 116.523 27.9474C115.551 27.9474 114.923 27.2653 114.917 26.1726V20.7273H112.345V26.6314C112.351 28.7987 113.619 30.1207 115.484 30.1207C116.879 30.1207 117.881 29.4023 118.298 28.3157H118.394V30H120.863V20.7273H118.291V26.0518ZM123.43 30H126.002V24.4339C126.002 23.4077 126.654 22.7255 127.511 22.7255C128.356 22.7255 128.924 23.305 128.924 24.2166V30H131.417V24.3374C131.417 23.3775 131.967 22.7255 132.902 22.7255C133.723 22.7255 134.339 23.2386 134.339 24.271V30H136.905V23.7638C136.905 21.7536 135.709 20.6065 133.983 20.6065C132.625 20.6065 131.568 21.3008 131.188 22.3633H131.091C130.795 21.2887 129.848 20.6065 128.574 20.6065C127.324 20.6065 126.376 21.2706 125.99 22.3633H125.881V20.7273H123.43V30ZM143.672 30.1811C145.966 30.1811 147.511 29.0643 147.874 27.3438L145.495 27.1868C145.236 27.8931 144.572 28.2614 143.714 28.2614C142.428 28.2614 141.613 27.4102 141.613 26.0277V26.0217H147.928V25.3153C147.928 22.1641 146.02 20.6065 143.569 20.6065C140.841 20.6065 139.072 22.5444 139.072 25.4059C139.072 28.3459 140.817 30.1811 143.672 30.1811ZM141.613 24.4279C141.668 23.3714 142.471 22.5263 143.612 22.5263C144.728 22.5263 145.501 23.3232 145.507 24.4279H141.613Z" fill="white"/>
</svg>
