<svg width="124" height="48" viewBox="0 0 124 48" fill="none" xmlns="http://www.w3.org/2000/svg">
<rect width="124" height="48" fill="#FF6B00"/>
<path d="M19.8673 21.1921H22.3727C22.3365 18.9886 20.5254 17.4673 17.7725 17.4673C15.062 17.4673 13.0758 18.9645 13.0879 21.2102C13.0818 23.0334 14.3677 24.0778 16.4565 24.5788L17.8027 24.9169C19.149 25.2429 19.8975 25.6293 19.9036 26.4624C19.8975 27.3679 19.0403 27.9837 17.7122 27.9837C16.3539 27.9837 15.3759 27.3558 15.2914 26.1183H12.7619C12.8283 28.7926 14.742 30.1751 17.7423 30.1751C20.7608 30.1751 22.5357 28.7322 22.5417 26.4684C22.5357 24.4098 20.9842 23.3171 18.835 22.8342L17.7242 22.5685C16.6497 22.321 15.7502 21.9226 15.7683 21.0352C15.7683 20.2383 16.4746 19.6527 17.7544 19.6527C19.0041 19.6527 19.7708 20.2202 19.8673 21.1921ZM28.9875 30.1811C31.2816 30.1811 32.827 29.0643 33.1892 27.3438L30.8107 27.1868C30.5511 27.8931 29.887 28.2614 29.0298 28.2614C27.7439 28.2614 26.9289 27.4102 26.9289 26.0277V26.0217H33.2436V25.3153C33.2436 22.1641 31.3359 20.6065 28.8849 20.6065C26.1562 20.6065 24.3874 22.5444 24.3874 25.4059C24.3874 28.3459 26.1321 30.1811 28.9875 30.1811ZM26.9289 24.4279C26.9833 23.3714 27.7862 22.5263 28.9272 22.5263C30.044 22.5263 30.8167 23.3232 30.8228 24.4279H26.9289ZM39.6577 30.1811C41.9517 30.1811 43.4972 29.0643 43.8594 27.3438L41.4808 27.1868C41.2212 27.8931 40.5572 28.2614 39.6999 28.2614C38.4141 28.2614 37.5991 27.4102 37.5991 26.0277V26.0217H43.9137V25.3153C43.9137 22.1641 42.006 20.6065 39.5551 20.6065C36.8264 20.6065 35.0575 22.5444 35.0575 25.4059C35.0575 28.3459 36.8022 30.1811 39.6577 30.1811ZM37.5991 24.4279C37.6534 23.3714 38.4563 22.5263 39.5973 22.5263C40.7141 22.5263 41.4869 23.3232 41.4929 24.4279H37.5991ZM50.5948 30H53.2088V25.9915H55.4063C58.2497 25.9915 59.9038 24.2951 59.9038 21.826C59.9038 19.369 58.2799 17.6364 55.4727 17.6364H50.5948V30ZM53.2088 23.8967V19.7734H54.9716C56.4809 19.7734 57.2113 20.5945 57.2113 21.826C57.2113 23.0515 56.4809 23.8967 54.9837 23.8967H53.2088ZM62.0634 30H64.6351V24.7539C64.6351 23.6129 65.4682 22.8281 66.6032 22.8281C66.9593 22.8281 67.4483 22.8885 67.6898 22.967V20.685C67.4604 20.6307 67.1404 20.5945 66.8809 20.5945C65.8425 20.5945 64.9913 21.1982 64.6532 22.3452H64.5566V20.7273H62.0634V30ZM73.2874 30.1811C76.1006 30.1811 77.8514 28.2553 77.8514 25.3999C77.8514 22.5263 76.1006 20.6065 73.2874 20.6065C70.4742 20.6065 68.7235 22.5263 68.7235 25.3999C68.7235 28.2553 70.4742 30.1811 73.2874 30.1811ZM73.2995 28.1889C72.0016 28.1889 71.3375 26.9996 71.3375 25.3817C71.3375 23.7638 72.0016 22.5685 73.2995 22.5685C74.5733 22.5685 75.2374 23.7638 75.2374 25.3817C75.2374 26.9996 74.5733 28.1889 73.2995 28.1889ZM80.0336 20.7273V30.3864C80.0336 31.0866 79.7378 31.4368 78.9107 31.4368C78.8021 31.4368 78.7055 31.4368 78.5726 31.4247V33.435C78.7719 33.4471 78.9107 33.4471 79.0496 33.4471C81.2772 33.5075 82.6053 32.5778 82.6053 30.4286V20.7273H80.0336ZM81.3134 19.532C82.0801 19.532 82.7079 18.9464 82.7079 18.228C82.7079 17.5156 82.0801 16.93 81.3134 16.93C80.5528 16.93 79.9249 17.5156 79.9249 18.228C79.9249 18.9464 80.5528 19.532 81.3134 19.532ZM89.4013 30.1811C91.6953 30.1811 93.2408 29.0643 93.603 27.3438L91.2244 27.1868C90.9648 27.8931 90.3008 28.2614 89.4435 28.2614C88.1577 28.2614 87.3427 27.4102 87.3427 26.0277V26.0217H93.6573V25.3153C93.6573 22.1641 91.7496 20.6065 89.2986 20.6065C86.5699 20.6065 84.8011 22.5444 84.8011 25.4059C84.8011 28.3459 86.5458 30.1811 89.4013 30.1811ZM87.3427 24.4279C87.397 23.3714 88.1999 22.5263 89.3409 22.5263C90.4577 22.5263 91.2305 23.3232 91.2365 24.4279H87.3427ZM100.035 30.1811C102.504 30.1811 104.056 28.7322 104.177 26.6012H101.75C101.599 27.5913 100.947 28.1467 100.065 28.1467C98.864 28.1467 98.0853 27.1385 98.0853 25.3636C98.0853 23.6129 98.8701 22.6108 100.065 22.6108C101.007 22.6108 101.611 23.2326 101.75 24.1562H104.177C104.068 22.0131 102.444 20.6065 100.023 20.6065C97.2099 20.6065 95.4713 22.5565 95.4713 25.3999C95.4713 28.2191 97.1797 30.1811 100.035 30.1811ZM111.265 20.7273H109.521V18.5057H106.949V20.7273H105.681V22.6591H106.949V27.4886C106.937 29.3058 108.174 30.2053 110.04 30.1268C110.704 30.1026 111.175 29.9698 111.434 29.8853L111.03 27.9716C110.903 27.9957 110.631 28.0561 110.39 28.0561C109.877 28.0561 109.521 27.8629 109.521 27.1506V22.6591H111.265V20.7273Z" fill="white"/>
</svg>
