<svg width="200" height="40" viewBox="0 0 200 40" fill="none" xmlns="http://www.w3.org/2000/svg">
<g clip-path="url(#clip0_48_33)">
<g clip-path="url(#clip1_48_33)">
<g clip-path="url(#clip2_48_33)">
<path d="M28.9989 17.4611C28.9989 16.3212 28.6329 15.2504 27.9342 14.3178C28.2004 13.4197 28.2669 12.2798 28.2004 10.9672C28.1671 10.4145 27.7345 10 27.2022 10C26.9028 10 24.3741 10.0345 22.9101 11.3817C21.6458 11.1399 20.315 11.1399 19.0174 11.3817C17.5867 10.0345 15.058 10 14.7253 10C14.193 10 13.7604 10.4145 13.7272 10.9672C13.6273 12.2798 13.7272 13.4197 13.9933 14.3178C13.2946 15.285 12.9286 16.3558 12.9286 17.4611C12.9286 19.8791 14.7253 22.0553 17.4536 23.0915C17.3538 23.2988 17.2872 23.5406 17.2207 23.7824C14.326 23.4715 12.9619 20.7427 12.8954 20.639C12.6625 20.1209 12.0636 19.9136 11.5645 20.19C11.0654 20.4318 10.8658 21.0535 11.132 21.5717C11.1985 21.7444 13.0284 25.4404 17.0543 25.8549V28.9637C17.0543 29.5509 17.4869 30 18.0525 30H23.875C24.4406 30 24.8732 29.5509 24.8732 28.9637V24.8532C24.8732 24.2314 24.7401 23.6442 24.5072 23.1261C27.2022 22.0553 28.9989 19.9136 28.9989 17.4611Z" fill="#DBD8D7"/>
</g>
</g>
<g clip-path="url(#clip3_48_33)">
<path d="M63.6439 13.0344C60.1551 13.0344 57.2881 15.862 57.2881 19.3793V29.3103C57.2881 29.6896 57.599 29.9999 57.9789 29.9999H61.5713C61.9513 29.9999 62.2622 29.6896 62.2622 29.3103V19.6551C62.2622 18.8965 62.8839 18.2758 63.6439 18.2758C64.4038 18.2758 65.0256 18.8965 65.0256 19.6551V29.3103C65.0256 29.6896 65.3364 29.9999 65.7164 29.9999H69.3088C69.6888 29.9999 69.9997 29.6896 69.9997 29.3103V19.3793C69.9997 15.8965 67.1672 13.0344 63.6439 13.0344Z" fill="#DBD8D7"/>
<path d="M54.2832 16.2759H50.6908C50.3109 16.2759 50 16.5862 50 16.9655V29.3104C50 29.6897 50.3109 30 50.6908 30H54.2832C54.6632 30 54.9741 29.6897 54.9741 29.3104V16.9655C54.9741 16.5862 54.6632 16.2759 54.2832 16.2759Z" fill="#DBD8D7"/>
<path d="M52.487 10C51.1054 10 50 11.1034 50 12.4828C50 13.8621 51.1054 14.9655 52.487 14.9655C53.8687 14.9655 54.9741 13.8621 54.9741 12.4828C54.9741 11.1034 53.8687 10 52.487 10Z" fill="#DBD8D7"/>
</g>
<g clip-path="url(#clip4_48_33)">
<path d="M99.4645 30C104.161 30 107.084 26.5392 107.084 22.0742C107.084 20.3908 106.809 18.8708 104.899 18.4142C105.364 17.1408 106.705 13.4575 106.705 12.2775C106.705 11.2383 106.08 10.3675 104.966 10.3675C103.19 10.3675 101.599 15.5117 101.1 16.7383C100.714 15.625 98.9078 10 97.3153 10C96.0778 10 95.497 10.8942 95.497 12.0192C95.497 13.3983 96.8578 16.9725 97.3512 18.3475C97.1012 18.2575 96.8303 18.1792 96.5545 18.1792C95.6228 18.1792 94.632 19.3158 94.632 20.2342C94.632 20.5817 94.827 21.07 94.9503 21.3942C93.482 21.785 92.917 22.7458 92.917 24.195C92.9128 27.015 95.6362 30 99.4645 30ZM103.489 14.2192C103.649 13.7383 104.329 11.7075 104.966 11.7075C105.309 11.7075 105.4 12.055 105.4 12.3325C105.4 13.0783 103.864 17.2 103.525 18.1133L102.172 17.8792L103.489 14.2192ZM96.747 11.8875V11.8867C96.747 11.4217 97.3245 10.1017 98.5895 13.7267L99.967 17.645C99.3462 17.5942 98.8645 17.5275 98.5587 17.7C98.1245 16.575 96.747 13.0242 96.747 11.8875ZM96.6553 19.5308L96.6562 19.5317C97.822 19.5317 99.327 23.2267 99.327 23.7267C99.327 23.9258 99.132 24.1717 98.9053 24.1717C98.0728 24.1717 95.8437 21.1675 95.8437 20.355C95.847 20.0542 96.3487 19.5308 96.6553 19.5308ZM95.3153 22.5892C95.7687 22.5892 97.4762 24.945 97.4762 25.445C97.4762 25.6367 97.1695 25.7692 97.0112 25.7692C96.3703 25.7692 96.1195 25.1633 94.9778 23.7617C93.7953 24.9217 95.7937 27.1558 97.2987 27.1558C98.337 27.1558 99.0137 26.2108 98.8112 25.515C98.9587 25.515 99.1412 25.5267 99.277 25.4917C99.3212 26.55 99.6395 27.8117 100.937 27.9017C100.937 27.8667 101.017 27.6242 101.017 27.6125C101.017 26.9325 100.595 26.3392 100.595 25.6475C100.595 24.5417 101.459 23.4717 102.334 22.8467C102.653 22.6125 103.039 22.4675 103.413 22.335C103.799 22.1908 104.209 22.0225 104.503 21.7333C104.459 21.2958 104.276 20.9092 103.83 20.9092C102.728 20.9092 99.0303 21.0658 99.0303 19.3583C99.0303 19.0967 99.0345 18.8467 99.7237 18.8467C101.009 18.8467 104.274 19.1592 105.229 19.9833C105.949 20.6125 106.196 24.405 103.994 26.8075L103.992 26.8083C102.834 28.0583 101.353 28.7067 99.6253 28.7067C97.2612 28.7067 95.3937 27.4333 94.4945 25.2575C93.8137 23.5625 94.6462 22.5892 95.3153 22.5892ZM100.066 21.8858C100.454 22.0075 100.851 22.0433 101.249 22.1208C100.954 22.3317 100.693 22.59 100.441 22.8667C100.329 22.535 100.194 22.2108 100.066 21.8858Z" fill="#DBD8D7"/>
</g>
<g clip-path="url(#clip5_48_33)">
<g clip-path="url(#clip6_48_33)">
<path d="M149.766 10.3698C149.433 9.97109 148.866 9.87143 148.433 10.1704L146.5 11.4993C145.6 10.5359 144.333 10.0043 142.966 10.0043C140.266 10.0043 138.033 12.197 138.033 14.9212C138.033 15.3199 138.066 15.6854 138.166 16.0508C135.833 15.5525 134.433 13.8581 133.9 10.8017C133.833 10.403 133.533 10.104 133.133 10.0043C132.766 9.90465 132.366 10.0708 132.133 10.3698C132.066 10.4362 126.566 18.0774 134.533 24.5558C133.766 26.1837 131.466 27.579 130.566 28.0441C130.133 28.2435 129.933 28.7086 130.033 29.1737C130.133 29.6388 130.533 29.9378 131 29.9378H132.733C142.866 29.9378 147.466 24.9212 147.566 13.692L149.666 11.6987C150.066 11.3664 150.1 10.7684 149.766 10.3698Z" fill="#DBD8D7"/>
</g>
</g>
<path d="M188.404 13.8804L190 12.3377V12H184.472L180.532 21.9099L176.049 12H170.252V12.3377L172.117 14.6055C172.298 14.7731 172.393 15.0181 172.369 15.2648V24.1768C172.427 24.4977 172.323 24.8278 172.1 25.0611L170 27.6328V27.9663H175.954V27.6286L173.854 25.0611C173.627 24.8269 173.519 24.5027 173.565 24.1768V16.4682L178.792 27.9705H179.399L183.893 16.4682V25.6312C183.893 25.8728 183.893 25.9225 183.737 26.0808L182.12 27.6615V28H189.963V27.6623L188.405 26.1204C188.268 26.016 188.198 25.8408 188.227 25.6707V14.3301C188.198 14.1592 188.267 13.984 188.404 13.8804Z" fill="#DBD8D7"/>
</g>
<defs>
<clipPath id="clip0_48_33">
<rect width="200" height="40" fill="white"/>
</clipPath>
<clipPath id="clip1_48_33">
<rect width="18" height="20" fill="white" transform="translate(11 10)"/>
</clipPath>
<clipPath id="clip2_48_33">
<rect width="18" height="20" fill="white" transform="translate(11 10)"/>
</clipPath>
<clipPath id="clip3_48_33">
<rect width="20" height="20" fill="white" transform="translate(50 10)"/>
</clipPath>
<clipPath id="clip4_48_33">
<rect width="20" height="20" fill="white" transform="translate(90 10)"/>
</clipPath>
<clipPath id="clip5_48_33">
<rect width="20" height="20" fill="white" transform="translate(130 10)"/>
</clipPath>
<clipPath id="clip6_48_33">
<rect width="20" height="19.9667" fill="white" transform="translate(130 9.97144)"/>
</clipPath>
</defs>
</svg>
