<svg width="236" height="40" viewBox="0 0 236 40" fill="none" xmlns="http://www.w3.org/2000/svg">
<g clip-path="url(#clip0_48_92)">
<rect width="56" height="40" fill="white" fill-opacity="0.24"/>
<path d="M14.6634 20.142C14.6634 18.837 15.489 18.0913 16.6236 18.0913C17.7209 18.0913 18.3761 18.7891 18.3761 19.9876V25H19.9688V19.7958C19.9688 17.7557 18.8501 16.7116 17.1669 16.7116C15.8938 16.7116 15.1268 17.2656 14.7433 18.1499H14.642V14.0909H13.0707V25H14.6634V20.142ZM25.9134 16.8182H24.2354V14.858H22.6428V16.8182H21.4442V18.0966H22.6428V22.9279C22.6374 24.4141 23.772 25.1332 25.0291 25.1065C25.5352 25.1012 25.8761 25.0053 26.0625 24.9361L25.7749 23.6204C25.6683 23.6417 25.4712 23.6896 25.2156 23.6896C24.6989 23.6896 24.2354 23.5192 24.2354 22.5977V18.0966H25.9134V16.8182ZM27.6752 25H29.2678V19.9556C29.2678 18.853 30.0402 18.0859 30.9458 18.0859C31.83 18.0859 32.4426 18.6719 32.4426 19.5614V25H34.0299V19.7852C34.0299 18.7997 34.6318 18.0859 35.6705 18.0859C36.5122 18.0859 37.2046 18.5547 37.2046 19.6626V25H38.7973V19.5135C38.7973 17.6438 37.7533 16.7116 36.2725 16.7116C35.0953 16.7116 34.211 17.2763 33.8169 18.1499H33.7316C33.3747 17.255 32.6237 16.7116 31.5317 16.7116C30.4504 16.7116 29.646 17.2496 29.3051 18.1499H29.2039V16.8182H27.6752V25ZM42.5247 14.0909H40.932V25H42.5247V14.0909Z" fill="white"/>
<rect width="95" height="40" transform="translate(68)" fill="white" fill-opacity="0.24"/>
<path d="M81.1985 25H82.7539V23.7269H82.8871C83.1747 24.2489 83.7607 25.1598 85.2521 25.1598C87.2337 25.1598 88.6719 23.5724 88.6719 20.9251C88.6719 18.2724 87.2124 16.7116 85.2362 16.7116C83.718 16.7116 83.1694 17.6385 82.8871 18.1445H82.7912V14.0909H81.1985V25ZM82.7592 20.9091C82.7592 19.1992 83.505 18.0646 84.8952 18.0646C86.3388 18.0646 87.0632 19.2844 87.0632 20.9091C87.0632 22.5497 86.3175 23.8015 84.8952 23.8015C83.5263 23.8015 82.7592 22.6296 82.7592 20.9091ZM93.9067 25.1651C96.2132 25.1651 97.7206 23.4766 97.7206 20.9464C97.7206 18.4002 96.2132 16.7116 93.9067 16.7116C91.6002 16.7116 90.0928 18.4002 90.0928 20.9464C90.0928 23.4766 91.6002 25.1651 93.9067 25.1651ZM93.912 23.8281C92.4046 23.8281 91.7014 22.5124 91.7014 20.9411C91.7014 19.375 92.4046 18.0433 93.912 18.0433C95.4088 18.0433 96.1119 19.375 96.1119 20.9411C96.1119 22.5124 95.4088 23.8281 93.912 23.8281ZM102.945 25.1651C105.251 25.1651 106.759 23.4766 106.759 20.9464C106.759 18.4002 105.251 16.7116 102.945 16.7116C100.638 16.7116 99.1309 18.4002 99.1309 20.9464C99.1309 23.4766 100.638 25.1651 102.945 25.1651ZM102.95 23.8281C101.443 23.8281 100.74 22.5124 100.74 20.9411C100.74 19.375 101.443 18.0433 102.95 18.0433C104.447 18.0433 105.15 19.375 105.15 20.9411C105.15 22.5124 104.447 23.8281 102.95 23.8281ZM112.356 16.8182H110.678V14.858H109.085V16.8182H107.887V18.0966H109.085V22.9279C109.08 24.4141 110.214 25.1332 111.472 25.1065C111.978 25.1012 112.318 25.0053 112.505 24.9361L112.217 23.6204C112.111 23.6417 111.914 23.6896 111.658 23.6896C111.141 23.6896 110.678 23.5192 110.678 22.5977V18.0966H112.356V16.8182ZM120.117 18.8157C119.786 17.5426 118.79 16.7116 117.022 16.7116C115.174 16.7116 113.863 17.6864 113.863 19.1353C113.863 20.2965 114.566 21.0689 116.1 21.4098L117.485 21.7134C118.274 21.8892 118.641 22.2408 118.641 22.7521C118.641 23.386 117.965 23.8814 116.921 23.8814C115.967 23.8814 115.355 23.4712 115.163 22.6669L113.623 22.9013C113.89 24.3501 115.094 25.1651 116.931 25.1651C118.908 25.1651 120.277 24.1158 120.277 22.6349C120.277 21.479 119.541 20.7653 118.039 20.419L116.74 20.1207C115.839 19.9077 115.451 19.604 115.456 19.0501C115.451 18.4215 116.132 17.9741 117.038 17.9741C118.029 17.9741 118.487 18.5227 118.673 19.0714L120.117 18.8157ZM125.847 16.8182H124.169V14.858H122.576V16.8182H121.378V18.0966H122.576V22.9279C122.571 24.4141 123.706 25.1332 124.963 25.1065C125.469 25.1012 125.81 25.0053 125.996 24.9361L125.708 23.6204C125.602 23.6417 125.405 23.6896 125.149 23.6896C124.632 23.6896 124.169 23.5192 124.169 22.5977V18.0966H125.847V16.8182ZM127.609 25H129.201V20.0036C129.201 18.9329 130.027 18.1605 131.156 18.1605C131.487 18.1605 131.859 18.2191 131.987 18.2564V16.733C131.828 16.7116 131.513 16.6957 131.311 16.6957C130.352 16.6957 129.532 17.239 129.233 18.1179H129.148V16.8182H127.609V25ZM135.673 25.1811C137.026 25.1811 137.788 24.494 138.092 23.8814H138.156V25H139.711V19.5668C139.711 17.1857 137.836 16.7116 136.536 16.7116C135.055 16.7116 133.692 17.3082 133.159 18.7997L134.656 19.1406C134.89 18.56 135.487 18.0007 136.558 18.0007C137.586 18.0007 138.113 18.5387 138.113 19.4656V19.5028C138.113 20.0835 137.516 20.0728 136.046 20.2433C134.496 20.4244 132.909 20.8292 132.909 22.6882C132.909 24.2969 134.118 25.1811 135.673 25.1811ZM136.02 23.9027C135.119 23.9027 134.47 23.4979 134.47 22.7095C134.47 21.8572 135.226 21.5536 136.147 21.4311C136.664 21.3619 137.889 21.2234 138.118 20.9943V22.049C138.118 23.0185 137.346 23.9027 136.02 23.9027ZM141.832 28.0682H143.425V23.7269H143.521C143.809 24.2489 144.395 25.1598 145.886 25.1598C147.868 25.1598 149.306 23.5724 149.306 20.9251C149.306 18.2724 147.846 16.7116 145.87 16.7116C144.352 16.7116 143.803 17.6385 143.521 18.1445H143.388V16.8182H141.832V28.0682ZM143.393 20.9091C143.393 19.1992 144.139 18.0646 145.529 18.0646C146.973 18.0646 147.697 19.2844 147.697 20.9091C147.697 22.5497 146.951 23.8015 145.529 23.8015C144.16 23.8015 143.393 22.6296 143.393 20.9091Z" fill="white"/>
<rect width="61" height="40" transform="translate(175)" fill="white" fill-opacity="0.24"/>
<path d="M188.199 25H189.844V20.8718H192.082C192.119 20.8718 192.151 20.8718 192.188 20.8718L194.404 25H196.279L193.861 20.5842C195.198 20.0888 195.864 18.9755 195.864 17.5107C195.864 15.5025 194.617 14.0909 192.087 14.0909H188.199V25ZM189.844 19.4549V15.5025H191.911C193.536 15.5025 194.207 16.2749 194.207 17.5107C194.207 18.7411 193.536 19.4549 191.933 19.4549H189.844ZM202.922 21.6069C202.927 22.9972 201.893 23.6577 200.999 23.6577C200.013 23.6577 199.331 22.9439 199.331 21.8306V16.8182H197.739V22.0224C197.739 24.0518 198.852 25.1065 200.423 25.1065C201.654 25.1065 202.49 24.4567 202.868 23.5831H202.953V25H204.52V16.8182H202.922V21.6069ZM206.787 25H208.343V23.7269H208.476C208.764 24.2489 209.35 25.1598 210.841 25.1598C212.823 25.1598 214.261 23.5724 214.261 20.9251C214.261 18.2724 212.801 16.7116 210.825 16.7116C209.307 16.7116 208.758 17.6385 208.476 18.1445H208.38V14.0909H206.787V25ZM208.348 20.9091C208.348 19.1992 209.094 18.0646 210.484 18.0646C211.928 18.0646 212.652 19.2844 212.652 20.9091C212.652 22.5497 211.906 23.8015 210.484 23.8015C209.115 23.8015 208.348 22.6296 208.348 20.9091ZM216.763 28.0469C218.079 28.0469 218.915 27.3597 219.384 26.092L222.766 16.8342L221.046 16.8182L218.974 23.1676H218.888L216.816 16.8182H215.112L218.105 25.1065L217.908 25.6499C217.503 26.7099 216.933 26.8058 216.06 26.5661L215.676 27.8711C215.868 27.9616 216.284 28.0469 216.763 28.0469Z" fill="white"/>
</g>
<defs>
<clipPath id="clip0_48_92">
<rect width="236" height="40" fill="white"/>
</clipPath>
</defs>
</svg>
