<svg width="297" height="40" viewBox="0 0 297 40" fill="none" xmlns="http://www.w3.org/2000/svg">
<g clip-path="url(#clip0_48_73)">
<rect x="0.5" y="0.5" width="48" height="39" fill="white"/>
<path d="M16.517 25.1651C18.4506 25.1651 19.7024 24.0039 19.8782 22.4112H18.3281C18.1257 23.2955 17.4386 23.8175 16.5277 23.8175C15.18 23.8175 14.3118 22.6935 14.3118 20.9091C14.3118 19.1566 15.196 18.054 16.5277 18.054C17.5398 18.054 18.1577 18.6932 18.3281 19.4602H19.8782C19.7077 17.8089 18.3601 16.7116 16.5011 16.7116C14.1946 16.7116 12.7031 18.4482 12.7031 20.9464C12.7031 23.4126 14.1413 25.1651 16.517 25.1651ZM27.7124 18.8157C27.3822 17.5426 26.3861 16.7116 24.6176 16.7116C22.7693 16.7116 21.4589 17.6864 21.4589 19.1353C21.4589 20.2965 22.162 21.0689 23.6961 21.4098L25.0811 21.7134C25.8694 21.8892 26.2369 22.2408 26.2369 22.7521C26.2369 23.386 25.5605 23.8814 24.5164 23.8814C23.5629 23.8814 22.9504 23.4712 22.7586 22.6669L21.2192 22.9013C21.4855 24.3501 22.6894 25.1651 24.5271 25.1651C26.5033 25.1651 27.8722 24.1158 27.8722 22.6349C27.8722 21.479 27.1372 20.7653 25.635 20.419L24.3353 20.1207C23.4351 19.9077 23.0463 19.604 23.0516 19.0501C23.0463 18.4215 23.7281 17.9741 24.6336 17.9741C25.6244 17.9741 26.0825 18.5227 26.2689 19.0714L27.7124 18.8157ZM35.7544 18.8157C35.4242 17.5426 34.4281 16.7116 32.6596 16.7116C30.8113 16.7116 29.5009 17.6864 29.5009 19.1353C29.5009 20.2965 30.204 21.0689 31.7381 21.4098L33.123 21.7134C33.9114 21.8892 34.2789 22.2408 34.2789 22.7521C34.2789 23.386 33.6025 23.8814 32.5584 23.8814C31.6049 23.8814 30.9924 23.4712 30.8006 22.6669L29.2612 22.9013C29.5275 24.3501 30.7314 25.1651 32.5691 25.1651C34.5453 25.1651 35.9142 24.1158 35.9142 22.6349C35.9142 21.479 35.1792 20.7653 33.677 20.419L32.3773 20.1207C31.4771 19.9077 31.0882 19.604 31.0936 19.0501C31.0882 18.4215 31.7701 17.9741 32.6756 17.9741C33.6664 17.9741 34.1245 18.5227 34.3109 19.0714L35.7544 18.8157Z" fill="#091E42"/>
<rect x="0.5" y="0.5" width="48" height="39" stroke="#8993A4"/>
<rect x="61.5" y="0.5" width="55" height="39" fill="white"/>
<path d="M75.6634 20.142C75.6634 18.837 76.489 18.0913 77.6236 18.0913C78.7209 18.0913 79.3761 18.7891 79.3761 19.9876V25H80.9688V19.7958C80.9688 17.7557 79.8501 16.7116 78.1669 16.7116C76.8938 16.7116 76.1268 17.2656 75.7433 18.1499H75.642V14.0909H74.0707V25H75.6634V20.142ZM86.9134 16.8182H85.2354V14.858H83.6428V16.8182H82.4442V18.0966H83.6428V22.9279C83.6374 24.4141 84.772 25.1332 86.0291 25.1065C86.5352 25.1012 86.8761 25.0053 87.0625 24.9361L86.7749 23.6204C86.6683 23.6417 86.4712 23.6896 86.2156 23.6896C85.6989 23.6896 85.2354 23.5192 85.2354 22.5977V18.0966H86.9134V16.8182ZM88.6752 25H90.2678V19.9556C90.2678 18.853 91.0402 18.0859 91.9458 18.0859C92.83 18.0859 93.4426 18.6719 93.4426 19.5614V25H95.0299V19.7852C95.0299 18.7997 95.6318 18.0859 96.6705 18.0859C97.5122 18.0859 98.2046 18.5547 98.2046 19.6626V25H99.7973V19.5135C99.7973 17.6438 98.7533 16.7116 97.2725 16.7116C96.0953 16.7116 95.211 17.2763 94.8169 18.1499H94.7316C94.3747 17.255 93.6237 16.7116 92.5317 16.7116C91.4504 16.7116 90.646 17.2496 90.3051 18.1499H90.2039V16.8182H88.6752V25ZM103.525 14.0909H101.932V25H103.525V14.0909Z" fill="#091E42"/>
<rect x="61.5" y="0.5" width="55" height="39" stroke="#8993A4"/>
<rect x="129.5" y="0.5" width="94" height="39" fill="white"/>
<path d="M142.199 25H143.754V23.7269H143.887C144.175 24.2489 144.761 25.1598 146.252 25.1598C148.234 25.1598 149.672 23.5724 149.672 20.9251C149.672 18.2724 148.212 16.7116 146.236 16.7116C144.718 16.7116 144.169 17.6385 143.887 18.1445H143.791V14.0909H142.199V25ZM143.759 20.9091C143.759 19.1992 144.505 18.0646 145.895 18.0646C147.339 18.0646 148.063 19.2844 148.063 20.9091C148.063 22.5497 147.317 23.8015 145.895 23.8015C144.526 23.8015 143.759 22.6296 143.759 20.9091ZM154.907 25.1651C157.213 25.1651 158.721 23.4766 158.721 20.9464C158.721 18.4002 157.213 16.7116 154.907 16.7116C152.6 16.7116 151.093 18.4002 151.093 20.9464C151.093 23.4766 152.6 25.1651 154.907 25.1651ZM154.912 23.8281C153.405 23.8281 152.701 22.5124 152.701 20.9411C152.701 19.375 153.405 18.0433 154.912 18.0433C156.409 18.0433 157.112 19.375 157.112 20.9411C157.112 22.5124 156.409 23.8281 154.912 23.8281ZM163.945 25.1651C166.251 25.1651 167.759 23.4766 167.759 20.9464C167.759 18.4002 166.251 16.7116 163.945 16.7116C161.638 16.7116 160.131 18.4002 160.131 20.9464C160.131 23.4766 161.638 25.1651 163.945 25.1651ZM163.95 23.8281C162.443 23.8281 161.74 22.5124 161.74 20.9411C161.74 19.375 162.443 18.0433 163.95 18.0433C165.447 18.0433 166.15 19.375 166.15 20.9411C166.15 22.5124 165.447 23.8281 163.95 23.8281ZM173.356 16.8182H171.678V14.858H170.085V16.8182H168.887V18.0966H170.085V22.9279C170.08 24.4141 171.214 25.1332 172.472 25.1065C172.978 25.1012 173.318 25.0053 173.505 24.9361L173.217 23.6204C173.111 23.6417 172.914 23.6896 172.658 23.6896C172.141 23.6896 171.678 23.5192 171.678 22.5977V18.0966H173.356V16.8182ZM181.117 18.8157C180.786 17.5426 179.79 16.7116 178.022 16.7116C176.174 16.7116 174.863 17.6864 174.863 19.1353C174.863 20.2965 175.566 21.0689 177.1 21.4098L178.485 21.7134C179.274 21.8892 179.641 22.2408 179.641 22.7521C179.641 23.386 178.965 23.8814 177.921 23.8814C176.967 23.8814 176.355 23.4712 176.163 22.6669L174.623 22.9013C174.89 24.3501 176.094 25.1651 177.931 25.1651C179.908 25.1651 181.277 24.1158 181.277 22.6349C181.277 21.479 180.541 20.7653 179.039 20.419L177.74 20.1207C176.839 19.9077 176.451 19.604 176.456 19.0501C176.451 18.4215 177.132 17.9741 178.038 17.9741C179.029 17.9741 179.487 18.5227 179.673 19.0714L181.117 18.8157ZM186.847 16.8182H185.169V14.858H183.576V16.8182H182.378V18.0966H183.576V22.9279C183.571 24.4141 184.706 25.1332 185.963 25.1065C186.469 25.1012 186.81 25.0053 186.996 24.9361L186.708 23.6204C186.602 23.6417 186.405 23.6896 186.149 23.6896C185.632 23.6896 185.169 23.5192 185.169 22.5977V18.0966H186.847V16.8182ZM188.609 25H190.201V20.0036C190.201 18.9329 191.027 18.1605 192.156 18.1605C192.487 18.1605 192.859 18.2191 192.987 18.2564V16.733C192.828 16.7116 192.513 16.6957 192.311 16.6957C191.352 16.6957 190.532 17.239 190.233 18.1179H190.148V16.8182H188.609V25ZM196.673 25.1811C198.026 25.1811 198.788 24.494 199.092 23.8814H199.156V25H200.711V19.5668C200.711 17.1857 198.836 16.7116 197.536 16.7116C196.055 16.7116 194.692 17.3082 194.159 18.7997L195.656 19.1406C195.89 18.56 196.487 18.0007 197.558 18.0007C198.586 18.0007 199.113 18.5387 199.113 19.4656V19.5028C199.113 20.0835 198.516 20.0728 197.046 20.2433C195.496 20.4244 193.909 20.8292 193.909 22.6882C193.909 24.2969 195.118 25.1811 196.673 25.1811ZM197.02 23.9027C196.119 23.9027 195.47 23.4979 195.47 22.7095C195.47 21.8572 196.226 21.5536 197.147 21.4311C197.664 21.3619 198.889 21.2234 199.118 20.9943V22.049C199.118 23.0185 198.346 23.9027 197.02 23.9027ZM202.832 28.0682H204.425V23.7269H204.521C204.809 24.2489 205.395 25.1598 206.886 25.1598C208.868 25.1598 210.306 23.5724 210.306 20.9251C210.306 18.2724 208.846 16.7116 206.87 16.7116C205.352 16.7116 204.803 17.6385 204.521 18.1445H204.388V16.8182H202.832V28.0682ZM204.393 20.9091C204.393 19.1992 205.139 18.0646 206.529 18.0646C207.973 18.0646 208.697 19.2844 208.697 20.9091C208.697 22.5497 207.951 23.8015 206.529 23.8015C205.16 23.8015 204.393 22.6296 204.393 20.9091Z" fill="#091E42"/>
<rect x="129.5" y="0.5" width="94" height="39" stroke="#8993A4"/>
<rect x="236.5" y="0.5" width="60" height="39" fill="white"/>
<path d="M249.199 25H250.844V20.8718H253.082C253.119 20.8718 253.151 20.8718 253.188 20.8718L255.404 25H257.279L254.861 20.5842C256.198 20.0888 256.864 18.9755 256.864 17.5107C256.864 15.5025 255.617 14.0909 253.087 14.0909H249.199V25ZM250.844 19.4549V15.5025H252.911C254.536 15.5025 255.207 16.2749 255.207 17.5107C255.207 18.7411 254.536 19.4549 252.933 19.4549H250.844ZM263.922 21.6069C263.927 22.9972 262.893 23.6577 261.999 23.6577C261.013 23.6577 260.331 22.9439 260.331 21.8306V16.8182H258.739V22.0224C258.739 24.0518 259.852 25.1065 261.423 25.1065C262.654 25.1065 263.49 24.4567 263.868 23.5831H263.953V25H265.52V16.8182H263.922V21.6069ZM267.787 25H269.343V23.7269H269.476C269.764 24.2489 270.35 25.1598 271.841 25.1598C273.823 25.1598 275.261 23.5724 275.261 20.9251C275.261 18.2724 273.801 16.7116 271.825 16.7116C270.307 16.7116 269.758 17.6385 269.476 18.1445H269.38V14.0909H267.787V25ZM269.348 20.9091C269.348 19.1992 270.094 18.0646 271.484 18.0646C272.928 18.0646 273.652 19.2844 273.652 20.9091C273.652 22.5497 272.906 23.8015 271.484 23.8015C270.115 23.8015 269.348 22.6296 269.348 20.9091ZM277.763 28.0469C279.079 28.0469 279.915 27.3597 280.384 26.092L283.766 16.8342L282.046 16.8182L279.974 23.1676H279.888L277.816 16.8182H276.112L279.105 25.1065L278.908 25.6499C278.503 26.7099 277.933 26.8058 277.06 26.5661L276.676 27.8711C276.868 27.9616 277.284 28.0469 277.763 28.0469Z" fill="#091E42"/>
<rect x="236.5" y="0.5" width="60" height="39" stroke="#8993A4"/>
</g>
<defs>
<clipPath id="clip0_48_73">
<rect width="297" height="40" fill="white"/>
</clipPath>
</defs>
</svg>
